<svg width="24" height="24" viewBox="0 0 24 24" fill="none" xmlns="http://www.w3.org/2000/svg">
<path d="M23.7086 17.8764V17.9592L23.7128 17.9634C23.6687 21.0415 21.1522 23.5308 18.0638 23.5308H6.57519C3.45927 23.5308 0.925586 20.9971 0.925586 17.8812V6.39257C0.925586 3.27665 3.45927 0.742969 6.57519 0.742969H18.059C21.1749 0.742969 23.7086 3.27665 23.7086 6.39257V17.8764ZM21.5568 18.3302L21.5907 18.3641V17.8812V6.39257C21.5907 4.44873 20.0076 2.86567 18.0638 2.86567H6.57519C4.63135 2.86567 3.04829 4.44873 3.04829 6.39257V17.8764C3.04829 19.8202 4.63135 21.4033 6.57519 21.4033H18.059C19.8491 21.4033 21.3332 20.0607 21.5568 18.3302Z" fill="#9396A0" stroke="#F8FAFC" stroke-width="0.4"/>
<path d="M6.54961 12.1314C6.54961 8.95313 9.13605 6.36211 12.3189 6.36211H12.3237C15.5018 6.36211 18.0929 8.95324 18.0929 12.1314C18.0929 15.3093 15.4972 17.9007 12.3189 17.9007C9.14074 17.9007 6.54961 15.3095 6.54961 12.1314ZM8.67231 12.1362C8.67231 14.147 10.308 15.7827 12.3189 15.7827C14.3297 15.7827 15.9655 14.147 15.9655 12.1362C15.9655 10.1253 14.3297 8.4896 12.3189 8.4896C10.308 8.4896 8.67231 10.1253 8.67231 12.1362Z" fill="#9396A0" stroke="#F8FAFC" stroke-width="0.4"/>
<path d="M19.6926 5.99026C19.6926 6.66007 19.1503 7.2024 18.4805 7.2024C17.8107 7.2024 17.2684 6.66007 17.2684 5.99026C17.2684 5.32045 17.8107 4.77813 18.4805 4.77813C19.1503 4.77813 19.6926 5.32045 19.6926 5.99026Z" fill="#9396A0" stroke="#F8FAFC" stroke-width="0.4"/>
</svg>
