<svg width="26" height="25" viewBox="0 0 26 25" fill="none" xmlns="http://www.w3.org/2000/svg">
<path d="M13.2591 0.878907C12.5278 0.879153 11.7952 0.954748 11.2658 1.10377C10.0777 1.43824 9.15161 1.97607 8.2981 2.83006C7.06217 4.0667 6.55745 5.29359 6.43362 7.36479L6.37037 8.42352L5.64894 8.45628C5.02418 8.48467 4.87414 8.52618 4.52697 8.77017C3.79354 9.28567 3.49483 10.1387 3.74932 10.9907C3.93934 11.6269 4.31986 12.0539 5.24137 12.6608C5.67263 12.9448 6.02605 13.2402 6.02605 13.3166C6.02605 13.9636 4.59273 15.56 3.40265 16.2375C1.94425 17.0678 1.66699 17.3494 1.66699 18.0106C1.66699 18.9205 2.47034 19.6489 4.04211 20.1632C4.44274 20.2943 4.54174 20.3737 4.67922 20.6785C5.03307 21.4633 5.56873 21.7489 6.85992 21.8403C8.11243 21.929 8.72365 22.1043 9.65431 22.6414C10.65 23.216 11.4077 23.5297 12.0669 23.6392C13.2369 23.8336 14.5589 23.7151 15.5125 23.3301C15.8081 23.2106 16.4174 22.9005 16.8663 22.6414C17.797 22.1043 18.4059 21.929 19.6584 21.8403C20.9496 21.7489 21.4876 21.4633 21.8414 20.6785C21.9789 20.3737 22.0779 20.2944 22.4785 20.1632C24.0316 19.655 24.8536 18.9195 24.8536 18.0387C24.8536 17.3592 24.5259 17.0072 23.2609 16.3242C22.0071 15.6472 20.4946 13.9999 20.4946 13.3119C20.4946 13.2331 20.733 13.0169 21.0263 12.8318C22.392 11.9697 22.842 11.382 22.8509 10.4449C22.8577 9.7359 22.5711 9.17564 21.9937 8.77019C21.6458 8.52597 21.4965 8.48469 20.8717 8.45631L20.1503 8.42352L20.087 7.36479C19.9633 5.2959 19.4595 4.07144 18.2225 2.82772C17.3737 1.97424 16.4587 1.44188 15.2501 1.10143C14.7224 0.952766 13.9905 0.878661 13.2591 0.878907Z" stroke="#9396A0" stroke-width="1.5" stroke-linecap="round" stroke-linejoin="round"/>
</svg>
